<?xml version="1.0" standalone="no"?>
<!DOCTYPE svg PUBLIC "-//W3C//DTD SVG 20010904//EN"
 "http://www.w3.org/TR/2001/REC-SVG-20010904/DTD/svg10.dtd">
<svg version="1.0" xmlns="http://www.w3.org/2000/svg"
 width="73.000000pt" height="73.000000pt" viewBox="0 0 73.000000 73.000000"
 preserveAspectRatio="xMidYMid meet">
<metadata>
Created by potrace 1.14, written by Peter Selinger 2001-2017
</metadata>
<g transform="translate(0.000000,73.000000) scale(0.100000,-0.100000)"
fill="#000000" stroke="none">
<path d="M200 661 c0 -13 -8 -21 -22 -23 -22 -3 -23 -6 -22 -110 l1 -108 -29
0 c-29 0 -29 -1 -27 -47 3 -43 1 -48 -19 -51 -20 -3 -22 -9 -22 -63 0 -52 2
-59 20 -59 13 0 20 -7 20 -20 0 -11 7 -21 15 -21 8 -1 21 -2 28 -3 6 0 13 -8
13 -16 1 -8 2 -21 3 -27 0 -7 11 -13 22 -13 16 0 20 -5 16 -20 -5 -19 0 -20
173 -20 171 0 178 1 173 19 -4 15 1 20 18 23 18 2 24 9 24 28 0 15 6 26 15 26
8 1 21 2 28 3 6 0 12 10 12 21 0 13 7 20 20 20 19 0 21 5 18 63 -3 54 -5 62
-23 62 -18 0 -20 6 -18 48 2 33 -1 47 -10 46 -43 -5 -44 -2 -42 89 2 111 -2
132 -26 132 -12 0 -19 7 -19 20 0 17 -7 20 -40 20 -33 0 -40 -3 -40 -20 0 -13
-7 -20 -20 -20 -21 0 -23 -12 -22 -102 l1 -38 -49 0 -49 0 1 48 c0 87 -1 92
-22 92 -13 0 -20 7 -20 20 0 17 -7 20 -40 20 -33 0 -40 -3 -40 -19z"/>
</g>
</svg>
